<?xml version="1.0" encoding="UTF-8" standalone="no"?>
<!-- Generated by IcoMoon.io -->

<svg
   xmlns:dc="http://purl.org/dc/elements/1.1/"
   xmlns:cc="http://creativecommons.org/ns#"
   xmlns:rdf="http://www.w3.org/1999/02/22-rdf-syntax-ns#"
   xmlns:svg="http://www.w3.org/2000/svg"
   xmlns="http://www.w3.org/2000/svg"
   xmlns:sodipodi="http://sodipodi.sourceforge.net/DTD/sodipodi-0.dtd"
   xmlns:inkscape="http://www.inkscape.org/namespaces/inkscape"
   version="1.1"
   width="16"
   height="16"
   viewBox="0 0 16 16"
   id="svg5121"
   sodipodi:docname="490-svg.svg"
   inkscape:version="0.92.4 (5da689c313, 2019-01-14)">
  <metadata
     id="metadata5127">
    <rdf:RDF>
      <cc:Work
         rdf:about="">
        <dc:format>image/svg+xml</dc:format>
        <dc:type
           rdf:resource="http://purl.org/dc/dcmitype/StillImage" />
        <dc:title></dc:title>
      </cc:Work>
    </rdf:RDF>
  </metadata>
  <defs
     id="defs5125" />
  <sodipodi:namedview
     pagecolor="#ffffff"
     bordercolor="#666666"
     borderopacity="1"
     objecttolerance="10"
     gridtolerance="10"
     guidetolerance="10"
     inkscape:pageopacity="0"
     inkscape:pageshadow="2"
     inkscape:window-width="756"
     inkscape:window-height="480"
     id="namedview5123"
     showgrid="false"
     inkscape:zoom="14.75"
     inkscape:cx="8"
     inkscape:cy="8"
     inkscape:window-x="0"
     inkscape:window-y="0"
     inkscape:window-maximized="0"
     inkscape:current-layer="svg5121" />
  <path
     fill="#000000"
     d="M14.5 6.5c-0.444 0-0.843 0.193-1.118 0.5h-2.968l2.099-2.099c0.411 0.023 0.83-0.123 1.144-0.437 0.586-0.586 0.586-1.536 0-2.121s-1.536-0.586-2.121 0c-0.314 0.314-0.46 0.733-0.437 1.144l-2.099 2.099v-2.968c0.307-0.275 0.5-0.674 0.5-1.118 0-0.828-0.672-1.5-1.5-1.5s-1.5 0.672-1.5 1.5c0 0.444 0.193 0.843 0.5 1.118v2.968l-2.099-2.099c0.023-0.411-0.123-0.83-0.437-1.144-0.586-0.586-1.536-0.586-2.121 0s-0.586 1.536 0 2.121c0.314 0.314 0.733 0.46 1.144 0.437l2.099 2.099h-2.968c-0.275-0.307-0.674-0.5-1.118-0.5-0.828 0-1.5 0.672-1.5 1.5s0.672 1.5 1.5 1.5c0.444 0 0.843-0.193 1.118-0.5h2.968l-2.099 2.099c-0.411-0.023-0.83 0.123-1.144 0.437-0.586 0.586-0.586 1.536 0 2.121s1.536 0.586 2.121 0c0.314-0.314 0.46-0.733 0.437-1.144l2.099-2.099v2.968c-0.307 0.275-0.5 0.674-0.5 1.118 0 0.828 0.672 1.5 1.5 1.5s1.5-0.672 1.5-1.5c0-0.444-0.193-0.843-0.5-1.118v-2.968l2.099 2.099c-0.023 0.411 0.123 0.83 0.437 1.144 0.586 0.586 1.536 0.586 2.121 0s0.586-1.536 0-2.121c-0.314-0.314-0.733-0.46-1.144-0.437l-2.099-2.099h2.968c0.275 0.307 0.674 0.5 1.118 0.5 0.828 0 1.5-0.672 1.5-1.5s-0.672-1.5-1.5-1.5z"
     id="path5119" />
</svg>
