<?xml version="1.0" encoding="UTF-8" standalone="no"?>
<!-- Created with Inkscape (http://www.inkscape.org/) -->

<svg
   xmlns:dc="http://purl.org/dc/elements/1.1/"
   xmlns:cc="http://creativecommons.org/ns#"
   xmlns:rdf="http://www.w3.org/1999/02/22-rdf-syntax-ns#"
   xmlns:svg="http://www.w3.org/2000/svg"
   xmlns="http://www.w3.org/2000/svg"
   xmlns:xlink="http://www.w3.org/1999/xlink"
   xmlns:sodipodi="http://sodipodi.sourceforge.net/DTD/sodipodi-0.dtd"
   xmlns:inkscape="http://www.inkscape.org/namespaces/inkscape"
   version="1.1"
   id="svg4566"
   width="1080"
   height="2340"
   viewBox="0 0 1080 2340"
   sodipodi:docname="icon_MES_Bat.svg"
   inkscape:version="0.92.4 (5da689c313, 2019-01-14)"
   inkscape:export-filename="C:\Code\spie_mob\assets\icon.png"
   inkscape:export-xdpi="96"
   inkscape:export-ydpi="96"
   style="shape-rendering:crispEdges"
   shape-rendering="crispEdges">
  <metadata
     id="metadata4572">
    <rdf:RDF>
      <cc:Work
         rdf:about="">
        <dc:format>image/svg+xml</dc:format>
        <dc:type
           rdf:resource="http://purl.org/dc/dcmitype/StillImage" />
        <dc:title></dc:title>
      </cc:Work>
    </rdf:RDF>
  </metadata>
  <defs
     id="defs4570">
    <linearGradient
       inkscape:collect="always"
       id="linearGradient4565">
      <stop
         style="stop-color:#000a50;stop-opacity:1;"
         offset="0"
         id="stop4561" />
      <stop
         style="stop-color:#000a50;stop-opacity:0;"
         offset="1"
         id="stop4563" />
    </linearGradient>
    <radialGradient
       inkscape:collect="always"
       xlink:href="#linearGradient4565"
       id="radialGradient4569"
       cx="1258.0365"
       cy="332.57193"
       fx="1258.0365"
       fy="332.57193"
       r="215.40482"
       gradientTransform="matrix(1,0,0,0.7983193,0,67.073338)"
       gradientUnits="userSpaceOnUse" />
    <filter
       inkscape:collect="always"
       style="color-interpolation-filters:sRGB"
       id="filter8064"
       x="-0.15997233"
       width="1.3199447"
       y="-0.12000003"
       height="1.2400001">
      <feGaussianBlur
         inkscape:collect="always"
         stdDeviation="11.338583"
         id="feGaussianBlur8066" />
    </filter>
    <filter
       inkscape:collect="always"
       style="color-interpolation-filters:sRGB"
       id="filter8068"
       x="-0.12000003"
       width="1.2400001"
       y="-0.15997229"
       height="1.3199446">
      <feGaussianBlur
         inkscape:collect="always"
         stdDeviation="11.338583"
         id="feGaussianBlur8070" />
    </filter>
    <filter
       inkscape:collect="always"
       style="color-interpolation-filters:sRGB"
       id="filter8072"
       x="-0.15997229"
       width="1.3199446"
       y="-0.11999997"
       height="1.2399999">
      <feGaussianBlur
         inkscape:collect="always"
         stdDeviation="11.338583"
         id="feGaussianBlur8074" />
    </filter>
    <filter
       inkscape:collect="always"
       style="color-interpolation-filters:sRGB"
       id="filter8076"
       x="-0.11999997"
       width="1.2399999"
       y="-0.15997224"
       height="1.3199445">
      <feGaussianBlur
         inkscape:collect="always"
         stdDeviation="11.338583"
         id="feGaussianBlur8078" />
    </filter>
    <filter
       inkscape:collect="always"
       style="color-interpolation-filters:sRGB"
       id="filter8176"
       x="-0.15997229"
       width="1.3199446"
       y="-0.11999997"
       height="1.2399999">
      <feGaussianBlur
         inkscape:collect="always"
         stdDeviation="11.338583"
         id="feGaussianBlur8178" />
    </filter>
    <filter
       inkscape:collect="always"
       style="color-interpolation-filters:sRGB"
       id="filter8180"
       x="-0.11999997"
       width="1.2399999"
       y="-0.15997224"
       height="1.3199445">
      <feGaussianBlur
         inkscape:collect="always"
         stdDeviation="11.338583"
         id="feGaussianBlur8182" />
    </filter>
    <filter
       inkscape:collect="always"
       style="color-interpolation-filters:sRGB"
       id="filter8184"
       x="-0.15997233"
       width="1.3199447"
       y="-0.12000003"
       height="1.2400001">
      <feGaussianBlur
         inkscape:collect="always"
         stdDeviation="11.338583"
         id="feGaussianBlur8186" />
    </filter>
    <filter
       inkscape:collect="always"
       style="color-interpolation-filters:sRGB"
       id="filter8188"
       x="-0.12000003"
       width="1.2400001"
       y="-0.15997229"
       height="1.3199446">
      <feGaussianBlur
         inkscape:collect="always"
         stdDeviation="11.338583"
         id="feGaussianBlur8190" />
    </filter>
    <filter
       inkscape:collect="always"
       style="color-interpolation-filters:sRGB"
       id="filter8176-9"
       x="-0.1599723"
       width="1.3199446"
       y="-0.11999997"
       height="1.2399999">
      <feGaussianBlur
         inkscape:collect="always"
         stdDeviation="11.338583"
         id="feGaussianBlur8178-0" />
    </filter>
    <filter
       inkscape:collect="always"
       style="color-interpolation-filters:sRGB"
       id="filter8180-9"
       x="-0.11999997"
       width="1.2399999"
       y="-0.15997224"
       height="1.3199445">
      <feGaussianBlur
         inkscape:collect="always"
         stdDeviation="11.338583"
         id="feGaussianBlur8182-2" />
    </filter>
    <filter
       inkscape:collect="always"
       style="color-interpolation-filters:sRGB"
       id="filter8184-5"
       x="-0.15997232"
       width="1.3199447"
       y="-0.12000003"
       height="1.2400001">
      <feGaussianBlur
         inkscape:collect="always"
         stdDeviation="11.338583"
         id="feGaussianBlur8186-2" />
    </filter>
    <filter
       inkscape:collect="always"
       style="color-interpolation-filters:sRGB"
       id="filter8188-7"
       x="-0.12000003"
       width="1.2400001"
       y="-0.1599723"
       height="1.3199446">
      <feGaussianBlur
         inkscape:collect="always"
         stdDeviation="11.338583"
         id="feGaussianBlur8190-8" />
    </filter>
  </defs>
  <sodipodi:namedview
     pagecolor="#000000"
     bordercolor="#666666"
     borderopacity="1"
     objecttolerance="10"
     gridtolerance="10"
     guidetolerance="10"
     inkscape:pageopacity="0"
     inkscape:pageshadow="2"
     inkscape:window-width="1920"
     inkscape:window-height="1017"
     id="namedview4568"
     showgrid="false"
     inkscape:zoom="0.32"
     inkscape:cx="-239.73881"
     inkscape:cy="1320.5929"
     inkscape:window-x="-8"
     inkscape:window-y="-8"
     inkscape:window-maximized="1"
     inkscape:current-layer="layer5"
     inkscape:pagecheckerboard="true"
     units="px"
     showborder="true" />
  <g
     inkscape:groupmode="layer"
     id="layer5"
     inkscape:label="fond"
     style="opacity:0.7">
    <text
       xml:space="preserve"
       style="font-style:normal;font-variant:normal;font-weight:normal;font-stretch:normal;font-size:32px;line-height:1.25;font-family:Classic;-inkscape-font-specification:'Classic, Normal';font-variant-ligatures:normal;font-variant-caps:normal;font-variant-numeric:normal;font-feature-settings:normal;text-align:start;letter-spacing:0px;word-spacing:0px;writing-mode:lr-tb;text-anchor:start;opacity:0.7;fill:#ffffff;fill-opacity:1;stroke:none"
       x="517"
       y="2170.25"
       id="text6251"><tspan
         sodipodi:role="line"
         id="tspan6249"
         x="517"
         y="2170.25"
         style="font-style:normal;font-variant:normal;font-weight:normal;font-stretch:normal;font-size:32px;font-family:Classic;-inkscape-font-specification:'Classic, Normal';font-variant-ligatures:normal;font-variant-caps:normal;font-variant-numeric:normal;font-feature-settings:normal;text-align:start;writing-mode:lr-tb;text-anchor:start;fill:#ffffff;fill-opacity:1">BATBAKARRIK@XIPITEI.COM</tspan></text>
    <text
       xml:space="preserve"
       style="font-style:normal;font-variant:normal;font-weight:normal;font-stretch:normal;font-size:40px;line-height:1.25;font-family:sans-serif;-inkscape-font-specification:'sans-serif, Normal';font-variant-ligatures:normal;font-variant-caps:normal;font-variant-numeric:normal;font-feature-settings:normal;text-align:start;letter-spacing:0px;word-spacing:0px;writing-mode:lr-tb;text-anchor:start;opacity:0.7;fill:#ffffff;fill-opacity:1;stroke:none"
       x="717.01929"
       y="2122.4375"
       id="text6255"><tspan
         sodipodi:role="line"
         id="tspan6261"
         x="717.01929"
         y="2122.4375">™ <tspan
   style="font-style:normal;font-variant:normal;font-weight:normal;font-stretch:normal;font-family:Classic;-inkscape-font-specification:Classic;fill:#ffffff;fill-opacity:1"
   id="tspan6263">XIPITEI DEV</tspan></tspan><tspan
         sodipodi:role="line"
         x="717.01929"
         y="2172.4375"
         id="tspan6265" /></text>
    <text
       xml:space="preserve"
       style="font-style:italic;font-variant:normal;font-weight:normal;font-stretch:normal;font-size:48px;line-height:1.25;font-family:Calibri;-inkscape-font-specification:'Calibri, Italic';font-variant-ligatures:normal;font-variant-caps:normal;font-variant-numeric:normal;font-feature-settings:normal;text-align:start;letter-spacing:0px;word-spacing:0px;writing-mode:lr-tb;text-anchor:start;opacity:0.8;fill:#ffffff;fill-opacity:1;stroke:none"
       x="189.45703"
       y="951.19812"
       id="text6271"><tspan
         sodipodi:role="line"
         id="tspan6269"
         x="189.45703"
         y="951.19812"><tspan
   style="font-style:italic;font-variant:normal;font-weight:normal;font-stretch:normal;font-size:48px;font-family:Calibri;-inkscape-font-specification:'Calibri, Italic';font-variant-ligatures:normal;font-variant-caps:normal;font-variant-numeric:normal;font-feature-settings:normal;text-align:start;writing-mode:lr-tb;text-anchor:start"
   id="tspan6273">CHARGEMENT DE L'APPLICATION</tspan>.....</tspan></text>
    <text
       xml:space="preserve"
       style="font-style:normal;font-variant:normal;font-weight:bold;font-stretch:normal;font-size:155.04983521px;line-height:1.25;font-family:Calibri;-inkscape-font-specification:'Calibri Bold';font-variant-ligatures:normal;font-variant-caps:normal;font-variant-numeric:normal;font-feature-settings:normal;text-align:start;letter-spacing:0px;word-spacing:0px;writing-mode:lr-tb;text-anchor:start;opacity:1;fill:#ffffff;fill-opacity:1;stroke:none;stroke-width:1;shape-rendering:crispEdges;"
       x="777.14746"
       y="173.82584"
       id="text6271-2"
       transform="scale(1.2296404,0.81324588)"><tspan
         sodipodi:role="line"
         id="tspan6269-8"
         x="171.36656"
         y="779.60675"
         style="writing-mode:vertical-lr;stroke-width:1;-inkscape-font-specification:'Calibri Bold';font-family:Calibri;font-weight:bold;font-style:normal;font-stretch:normal;font-variant:normal;">MES_BAT <tspan
   style="font-size:103.36655426px;writing-mode:vertical-lr;stroke-width:1;-inkscape-font-specification:'Calibri Bold';font-family:Calibri;font-weight:bold;font-style:normal;font-stretch:normal;font-variant:normal;"
   id="tspan6296">V1.10</tspan></tspan></text>
  </g>
  <g
     inkscape:groupmode="layer"
     id="layer4"
     inkscape:label="Lauburu4"
     transform="translate(0,2148)">
    <g
       id="Layer1023-24"
       transform="matrix(-0.42078789,0,0,0.42078784,882.76099,-1116.6355)"
       style="display:inline;fill:#000000;stroke-width:0.48947346;filter:url(#filter8076)">
      <path
         inkscape:connector-curvature="0"
         id="path1098-5"
         style="fill:#a1d6e2;fill-opacity:1;fill-rule:evenodd;stroke-width:0.36710507;stroke-linecap:round;stroke-linejoin:round"
         d="m 1061.8583,274.9365 a 113.38585,113.38585 90 0 0 -226.7717,0.0241 56.692904,56.692904 90 0 1 113.3858,-0.0409 l 10e-5,0.0302 v 0.0214 a 56.6929,56.6929 90 0 0 113.3858,0.0135 z" />
      <path
         inkscape:connector-curvature="0"
         id="path1100-7"
         style="fill:#a1d6e2;fill-opacity:0;stroke:#000000;stroke-width:0.36710507;stroke-linecap:round;stroke-linejoin:round;stroke-dasharray:none"
         d="m 1061.8583,274.9365 a 113.38585,113.38585 90 0 0 -226.7717,0.0241 56.692904,56.692904 90 0 1 113.3858,-0.0409 l 10e-5,0.0302 v 0.0214 a 56.6929,56.6929 90 0 0 113.3858,0.0135 z" />
    </g>
    <g
       id="Layer1023-24-3"
       transform="matrix(-2.4656881,0,0,2.4656877,2387.1035,-2832.7863)"
       style="display:inline;fill:#000000;stroke-width:0.08353227;filter:url(#filter8180);shape-rendering:crispEdges">
      <path
         inkscape:connector-curvature="0"
         id="path1098-5-0"
         style="fill:#a1d6e2;fill-opacity:1;fill-rule:evenodd;stroke-width:0.06264919;stroke-linecap:round;stroke-linejoin:round"
         d="m 1061.8583,274.9365 a 113.38585,113.38585 90 0 0 -226.7717,0.0241 56.692904,56.692904 90 0 1 113.3858,-0.0409 l 10e-5,0.0302 v 0.0214 a 56.6929,56.6929 90 0 0 113.3858,0.0135 z" />
      <path
         inkscape:connector-curvature="0"
         id="path1100-7-7"
         style="fill:#a1d6e2;fill-opacity:0;stroke:#000000;stroke-width:0.06264919;stroke-linecap:round;stroke-linejoin:round;stroke-dasharray:none"
         d="m 1061.8583,274.9365 a 113.38585,113.38585 90 0 0 -226.7717,0.0241 56.692904,56.692904 90 0 1 113.3858,-0.0409 l 10e-5,0.0302 v 0.0214 a 56.6929,56.6929 90 0 0 113.3858,0.0135 z" />
    </g>
    <g
       id="Layer1025-3-7"
       transform="matrix(-2.4656881,0,0,2.4656877,2387.1035,-2832.7863)"
       style="display:inline;fill:#1995ad;fill-opacity:1;stroke-width:0.08353227;filter:url(#filter8176);shape-rendering:crispEdges">
      <path
         inkscape:connector-curvature="0"
         id="path1108-845-1"
         style="fill:#1995ad;fill-opacity:1;fill-rule:evenodd;stroke-width:0.06264919;stroke-linecap:round;stroke-linejoin:round"
         d="m 835.1107,501.7323 a 113.38585,113.38585 -180 0 0 -0.0241,-226.7717 56.692904,56.692904 -180 0 1 0.041,113.3858 l -0.0303,10e-5 h -0.0214 a 56.6929,56.6929 -180 0 0 -0.0134,113.3858 z" />
      <path
         inkscape:connector-curvature="0"
         id="path1110-6-6"
         style="fill:#1995ad;fill-opacity:1;stroke:#000000;stroke-width:0.06264919;stroke-linecap:round;stroke-linejoin:round;stroke-dasharray:none"
         d="m 835.1107,501.7323 a 113.38585,113.38585 -180 0 0 -0.0241,-226.7717 56.692904,56.692904 -180 0 1 0.041,113.3858 l -0.0303,10e-5 h -0.0214 a 56.6929,56.6929 -180 0 0 -0.0134,113.3858 z" />
    </g>
    <g
       id="Layer1024-6-8"
       transform="matrix(-2.4656881,0,0,2.4656877,2387.1035,-2832.7863)"
       style="display:inline;fill:#000000;stroke-width:0.08353227;filter:url(#filter8188);shape-rendering:crispEdges">
      <path
         inkscape:connector-curvature="0"
         id="path1103-3-1"
         style="fill:#000000;fill-rule:evenodd;stroke-width:0.06264919;stroke-linecap:round;stroke-linejoin:round"
         d="m 608.315,274.9848 a 113.3858,113.3858 -90 0 0 226.7716,-0.0242 56.692904,56.692904 -90 0 1 -113.3858,0.041 v -0.0303 -0.0214 A 56.6929,56.6929 -90 0 0 608.315,274.9365 Z" />
      <path
         inkscape:connector-curvature="0"
         id="path1105-12-6"
         style="fill:#a1d6e2;fill-opacity:1;stroke:#000000;stroke-width:0.06264919;stroke-linecap:round;stroke-linejoin:round;stroke-dasharray:none"
         d="m 608.315,274.9848 a 113.3858,113.3858 -90 0 0 226.7716,-0.0242 56.692904,56.692904 -90 0 1 -113.3858,0.041 v -0.0303 -0.0214 A 56.6929,56.6929 -90 0 0 608.315,274.9365 Z" />
    </g>
    <g
       id="Layer1022-3-7"
       transform="matrix(-2.4656881,0,0,2.4656877,2387.1035,-2832.7863)"
       style="display:inline;fill:#1995ad;fill-opacity:1;stroke-width:0.08353227;filter:url(#filter8184);shape-rendering:crispEdges">
      <path
         inkscape:connector-curvature="0"
         id="path1093-45-6"
         style="fill:#1995ad;fill-opacity:1;fill-rule:evenodd;stroke-width:0.06264919;stroke-linecap:round;stroke-linejoin:round"
         d="m 835.0625,48.189 a 113.3858,113.3858 0 0 0 0.0241,226.7716 56.692904,56.692904 0 0 1 -0.0409,-113.3858 h 0.0302 0.0214 A 56.6929,56.6929 0 0 0 835.1107,48.189 Z"
         inkscape:highlight-color="2715214368"
         inkscape:label="path1093-45" />
      <path
         inkscape:connector-curvature="0"
         id="path1095-38-6"
         style="fill:#1995ad;fill-opacity:1;fill-rule:nonzero;stroke:#000000;stroke-width:0.06264919;stroke-linecap:round;stroke-linejoin:round;stroke-dasharray:none"
         d="m 835.0625,48.189 a 113.3858,113.3858 0 0 0 0.0241,226.7716 56.692904,56.692904 0 0 1 -0.0409,-113.3858 h 0.0302 0.0214 A 56.6929,56.6929 0 0 0 835.1107,48.189 Z"
         inkscape:highlight-color="2715214386" />
    </g>
    <g
       id="Layer1023-24-3-4"
       transform="matrix(-2.4656881,0,0,2.4656877,2063.4826,-967.68356)"
       style="display:inline;fill:#000000;stroke-width:0.08353227;filter:url(#filter8180-9);shape-rendering:crispEdges">
      <path
         inkscape:connector-curvature="0"
         id="path1098-5-0-3"
         style="fill:#a1d6e2;fill-opacity:1;fill-rule:evenodd;stroke-width:0.06264919;stroke-linecap:round;stroke-linejoin:round"
         d="m 1061.8583,274.9365 a 113.38585,113.38585 90 0 0 -226.7717,0.0241 56.692904,56.692904 90 0 1 113.3858,-0.0409 l 10e-5,0.0302 v 0.0214 a 56.6929,56.6929 90 0 0 113.3858,0.0135 z" />
      <path
         inkscape:connector-curvature="0"
         id="path1100-7-7-3"
         style="fill:#a1d6e2;fill-opacity:0;stroke:#000000;stroke-width:0.06264919;stroke-linecap:round;stroke-linejoin:round;stroke-dasharray:none"
         d="m 1061.8583,274.9365 a 113.38585,113.38585 90 0 0 -226.7717,0.0241 56.692904,56.692904 90 0 1 113.3858,-0.0409 l 10e-5,0.0302 v 0.0214 a 56.6929,56.6929 90 0 0 113.3858,0.0135 z" />
    </g>
    <g
       id="Layer1025-3-7-7"
       transform="matrix(-2.4656881,0,0,2.4656877,2063.4826,-967.68356)"
       style="display:inline;fill:#1995ad;fill-opacity:1;stroke-width:0.08353227;filter:url(#filter8176-9);shape-rendering:crispEdges">
      <path
         inkscape:connector-curvature="0"
         id="path1108-845-1-4"
         style="fill:#1995ad;fill-opacity:1;fill-rule:evenodd;stroke-width:0.06264919;stroke-linecap:round;stroke-linejoin:round"
         d="m 835.1107,501.7323 a 113.38585,113.38585 -180 0 0 -0.0241,-226.7717 56.692904,56.692904 -180 0 1 0.041,113.3858 l -0.0303,10e-5 h -0.0214 a 56.6929,56.6929 -180 0 0 -0.0134,113.3858 z" />
      <path
         inkscape:connector-curvature="0"
         id="path1110-6-6-0"
         style="fill:#1995ad;fill-opacity:1;stroke:#000000;stroke-width:0.06264919;stroke-linecap:round;stroke-linejoin:round;stroke-dasharray:none"
         d="m 835.1107,501.7323 a 113.38585,113.38585 -180 0 0 -0.0241,-226.7717 56.692904,56.692904 -180 0 1 0.041,113.3858 l -0.0303,10e-5 h -0.0214 a 56.6929,56.6929 -180 0 0 -0.0134,113.3858 z" />
    </g>
    <g
       id="Layer1024-6-8-6"
       transform="matrix(-2.4656881,0,0,2.4656877,2063.4826,-967.68356)"
       style="display:inline;fill:#000000;stroke-width:0.08353227;filter:url(#filter8188-7);shape-rendering:crispEdges">
      <path
         inkscape:connector-curvature="0"
         id="path1103-3-1-8"
         style="fill:#000000;fill-rule:evenodd;stroke-width:0.06264919;stroke-linecap:round;stroke-linejoin:round"
         d="m 608.315,274.9848 a 113.3858,113.3858 -90 0 0 226.7716,-0.0242 56.692904,56.692904 -90 0 1 -113.3858,0.041 v -0.0303 -0.0214 A 56.6929,56.6929 -90 0 0 608.315,274.9365 Z" />
      <path
         inkscape:connector-curvature="0"
         id="path1105-12-6-1"
         style="fill:#a1d6e2;fill-opacity:1;stroke:#000000;stroke-width:0.06264919;stroke-linecap:round;stroke-linejoin:round;stroke-dasharray:none"
         d="m 608.315,274.9848 a 113.3858,113.3858 -90 0 0 226.7716,-0.0242 56.692904,56.692904 -90 0 1 -113.3858,0.041 v -0.0303 -0.0214 A 56.6929,56.6929 -90 0 0 608.315,274.9365 Z" />
    </g>
    <g
       id="Layer1022-3-7-1"
       transform="matrix(-2.4656881,0,0,2.4656877,2063.4826,-967.68356)"
       style="display:inline;fill:#1995ad;fill-opacity:1;stroke-width:0.08353227;filter:url(#filter8184-5);shape-rendering:crispEdges">
      <path
         inkscape:connector-curvature="0"
         id="path1093-45-6-6"
         style="fill:#1995ad;fill-opacity:1;fill-rule:evenodd;stroke-width:0.06264919;stroke-linecap:round;stroke-linejoin:round"
         d="m 835.0625,48.189 a 113.3858,113.3858 0 0 0 0.0241,226.7716 56.692904,56.692904 0 0 1 -0.0409,-113.3858 h 0.0302 0.0214 A 56.6929,56.6929 0 0 0 835.1107,48.189 Z"
         inkscape:highlight-color="2715214368"
         inkscape:label="path1093-45" />
      <path
         inkscape:connector-curvature="0"
         id="path1095-38-6-5"
         style="fill:#1995ad;fill-opacity:1;fill-rule:nonzero;stroke:#000000;stroke-width:0.06264919;stroke-linecap:round;stroke-linejoin:round;stroke-dasharray:none"
         d="m 835.0625,48.189 a 113.3858,113.3858 0 0 0 0.0241,226.7716 56.692904,56.692904 0 0 1 -0.0409,-113.3858 h 0.0302 0.0214 A 56.6929,56.6929 0 0 0 835.1107,48.189 Z"
         inkscape:highlight-color="2715214386" />
    </g>
  </g>
  <g
     inkscape:groupmode="layer"
     id="layer3"
     inkscape:label="Lauburu3"
     transform="translate(0,2148)"
     style="display:inline">
    <g
       id="Layer1025-3"
       transform="matrix(-0.42078789,0,0,0.42078784,882.76099,-1116.6355)"
       style="display:inline;fill:#1995ad;fill-opacity:1;stroke-width:0.48947346;filter:url(#filter8072)">
      <path
         inkscape:connector-curvature="0"
         id="path1108-845"
         style="fill:#1995ad;fill-opacity:1;fill-rule:evenodd;stroke-width:0.36710507;stroke-linecap:round;stroke-linejoin:round"
         d="m 835.1107,501.7323 a 113.38585,113.38585 -180 0 0 -0.0241,-226.7717 56.692904,56.692904 -180 0 1 0.041,113.3858 l -0.0303,10e-5 h -0.0214 a 56.6929,56.6929 -180 0 0 -0.0134,113.3858 z" />
      <path
         inkscape:connector-curvature="0"
         id="path1110-6"
         style="fill:#1995ad;fill-opacity:1;stroke:#000000;stroke-width:0.36710507;stroke-linecap:round;stroke-linejoin:round;stroke-dasharray:none"
         d="m 835.1107,501.7323 a 113.38585,113.38585 -180 0 0 -0.0241,-226.7717 56.692904,56.692904 -180 0 1 0.041,113.3858 l -0.0303,10e-5 h -0.0214 a 56.6929,56.6929 -180 0 0 -0.0134,113.3858 z" />
    </g>
  </g>
  <g
     inkscape:groupmode="layer"
     id="layer2"
     inkscape:label="Lauburu2"
     transform="translate(0,2148)"
     style="display:inline">
    <g
       id="Layer1024-6"
       transform="matrix(-0.42078789,0,0,0.42078784,882.76099,-1116.6355)"
       style="display:inline;fill:#000000;stroke-width:0.48947346;filter:url(#filter8068)">
      <path
         inkscape:connector-curvature="0"
         id="path1103-3"
         style="fill:#000000;fill-rule:evenodd;stroke-width:0.36710507;stroke-linecap:round;stroke-linejoin:round"
         d="m 608.315,274.9848 a 113.3858,113.3858 -90 0 0 226.7716,-0.0242 56.692904,56.692904 -90 0 1 -113.3858,0.041 v -0.0303 -0.0214 A 56.6929,56.6929 -90 0 0 608.315,274.9365 Z" />
      <path
         inkscape:connector-curvature="0"
         id="path1105-12"
         style="fill:#a1d6e2;fill-opacity:1;stroke:#000000;stroke-width:0.36710507;stroke-linecap:round;stroke-linejoin:round;stroke-dasharray:none"
         d="m 608.315,274.9848 a 113.3858,113.3858 -90 0 0 226.7716,-0.0242 56.692904,56.692904 -90 0 1 -113.3858,0.041 v -0.0303 -0.0214 A 56.6929,56.6929 -90 0 0 608.315,274.9365 Z" />
    </g>
  </g>
  <g
     inkscape:groupmode="layer"
     id="layer1"
     inkscape:label="Lauburu1"
     transform="translate(0,2148)"
     style="display:inline">
    <g
       id="Layer1022-3"
       transform="matrix(-0.42078789,0,0,0.42078784,882.76099,-1116.6355)"
       style="display:inline;fill:#1995ad;fill-opacity:1;stroke-width:0.48947346;filter:url(#filter8064)">
      <path
         inkscape:connector-curvature="0"
         id="path1093-45"
         style="fill:#1995ad;fill-opacity:1;fill-rule:evenodd;stroke-width:0.36710507;stroke-linecap:round;stroke-linejoin:round"
         d="m 835.0625,48.189 a 113.3858,113.3858 0 0 0 0.0241,226.7716 56.692904,56.692904 0 0 1 -0.0409,-113.3858 h 0.0302 0.0214 A 56.6929,56.6929 0 0 0 835.1107,48.189 Z"
         inkscape:highlight-color="2715214368"
         inkscape:label="path1093-45" />
      <path
         inkscape:connector-curvature="0"
         id="path1095-38"
         style="fill:#1995ad;fill-opacity:1;fill-rule:nonzero;stroke:#000000;stroke-width:0.36710507;stroke-linecap:round;stroke-linejoin:round;stroke-dasharray:none"
         d="m 835.0625,48.189 a 113.3858,113.3858 0 0 0 0.0241,226.7716 56.692904,56.692904 0 0 1 -0.0409,-113.3858 h 0.0302 0.0214 A 56.6929,56.6929 0 0 0 835.1107,48.189 Z"
         inkscape:highlight-color="2715214386" />
    </g>
  </g>
</svg>
