<?xml version="1.0" encoding="UTF-8" standalone="no"?>
<!-- Created with Inkscape (http://www.inkscape.org/) -->

<svg
   xmlns:dc="http://purl.org/dc/elements/1.1/"
   xmlns:cc="http://creativecommons.org/ns#"
   xmlns:rdf="http://www.w3.org/1999/02/22-rdf-syntax-ns#"
   xmlns:svg="http://www.w3.org/2000/svg"
   xmlns="http://www.w3.org/2000/svg"
   xmlns:sodipodi="http://sodipodi.sourceforge.net/DTD/sodipodi-0.dtd"
   xmlns:inkscape="http://www.inkscape.org/namespaces/inkscape"
   version="1.1"
   id="svg2"
   width="1242"
   height="2436"
   viewBox="0 0 1242 2436"
   sodipodi:docname="splash_MES_Bat.svg"
   inkscape:version="0.92.4 (5da689c313, 2019-01-14)"
   inkscape:export-filename="C:\Code\spie_mob\assets\splash_MES_Bat.png"
   inkscape:export-xdpi="122"
   inkscape:export-ydpi="122">
  <metadata
     id="metadata8">
    <rdf:RDF>
      <cc:Work
         rdf:about="">
        <dc:format>image/svg+xml</dc:format>
        <dc:type
           rdf:resource="http://purl.org/dc/dcmitype/StillImage" />
        <dc:title />
      </cc:Work>
    </rdf:RDF>
  </metadata>
  <defs
     id="defs6">
    <filter
       inkscape:collect="always"
       style="color-interpolation-filters:sRGB"
       id="filter1127"
       x="-0.4442029"
       width="1.8884058"
       y="-0.22647783"
       height="1.4529557">
      <feGaussianBlur
         inkscape:collect="always"
         stdDeviation="229.875"
         id="feGaussianBlur1129" />
    </filter>
  </defs>
  <sodipodi:namedview
     pagecolor="#ffffff"
     bordercolor="#666666"
     borderopacity="1"
     objecttolerance="10"
     gridtolerance="10"
     guidetolerance="10"
     inkscape:pageopacity="0"
     inkscape:pageshadow="2"
     inkscape:window-width="1920"
     inkscape:window-height="1017"
     id="namedview4"
     showgrid="false"
     inkscape:zoom="0.56360709"
     inkscape:cx="258.82648"
     inkscape:cy="1350.3665"
     inkscape:window-x="-8"
     inkscape:window-y="-8"
     inkscape:window-maximized="1"
     inkscape:current-layer="layer1"
     inkscape:snap-page="true" />
  <g
     inkscape:groupmode="layer"
     id="layer1"
     inkscape:label="Layer 1">
    <rect
       style="opacity:0.548;fill:#455a64;fill-opacity:1;fill-rule:evenodd;stroke:none;stroke-width:0;stroke-miterlimit:4;stroke-dasharray:none;stroke-dashoffset:0;stroke-opacity:1;paint-order:normal;filter:url(#filter1127)"
       id="rect824"
       width="1242"
       height="2436"
       x="0"
       y="0"
       inkscape:export-xdpi="122"
       inkscape:export-ydpi="122" />
  </g>
  <g
     inkscape:groupmode="layer"
     id="layer2"
     inkscape:label="Layer 2">
    <g
       id="g861"
       transform="matrix(6.5251428,0,0,6.5251276,-5.5507057,504.10223)"
       style="stroke-width:0.15325354">
      <g
         style="display:inline;fill:#1995ad;fill-opacity:1;stroke-width:0.07594314"
         transform="matrix(-0.414942,0,0,0.41633338,442.37692,-18.102411)"
         id="Layer1022-3">
        <path
           inkscape:label="path1093-45"
           inkscape:highlight-color="2715214368"
           d="m 835.0625,48.189 a 113.3858,113.3858 0 0 0 0.0241,226.7716 56.692904,56.692904 0 0 1 -0.0409,-113.3858 h 0.0302 0.0214 A 56.6929,56.6929 0 0 0 835.1107,48.189 Z"
           style="fill:#1995ad;fill-opacity:1;fill-rule:evenodd;stroke-width:0.05695736;stroke-linecap:round;stroke-linejoin:round"
           id="path1093-45"
           inkscape:connector-curvature="0" />
        <path
           inkscape:highlight-color="2715214386"
           d="m 835.0625,48.189 a 113.3858,113.3858 0 0 0 0.0241,226.7716 56.692904,56.692904 0 0 1 -0.0409,-113.3858 h 0.0302 0.0214 A 56.6929,56.6929 0 0 0 835.1107,48.189 Z"
           style="fill:#1995ad;fill-opacity:1;fill-rule:nonzero;stroke:#000000;stroke-width:0.05695736;stroke-linecap:round;stroke-linejoin:round;stroke-dasharray:none"
           id="path1095-38"
           inkscape:connector-curvature="0" />
      </g>
      <g
         style="display:inline;fill:#000000;stroke-width:0.07594314"
         transform="matrix(-0.414942,0,0,0.41633338,442.37692,-18.102411)"
         id="Layer1023-24">
        <path
           d="m 1061.8583,274.9365 a 113.38585,113.38585 90 0 0 -226.7717,0.0241 56.692904,56.692904 90 0 1 113.3858,-0.0409 l 10e-5,0.0302 v 0.0214 a 56.6929,56.6929 90 0 0 113.3858,0.0135 z"
           style="fill:#a1d6e2;fill-opacity:1;fill-rule:evenodd;stroke-width:0.05695736;stroke-linecap:round;stroke-linejoin:round"
           id="path1098-5"
           inkscape:connector-curvature="0" />
        <path
           d="m 1061.8583,274.9365 a 113.38585,113.38585 90 0 0 -226.7717,0.0241 56.692904,56.692904 90 0 1 113.3858,-0.0409 l 10e-5,0.0302 v 0.0214 a 56.6929,56.6929 90 0 0 113.3858,0.0135 z"
           style="fill:#a1d6e2;fill-opacity:0;stroke:#000000;stroke-width:0.05695736;stroke-linecap:round;stroke-linejoin:round;stroke-dasharray:none"
           id="path1100-7"
           inkscape:connector-curvature="0" />
      </g>
      <g
         style="display:inline;fill:#000000;stroke-width:0.07594314"
         transform="matrix(-0.414942,0,0,0.41633338,442.37692,-18.102411)"
         id="Layer1024-6">
        <path
           d="m 608.315,274.9848 a 113.3858,113.3858 -90 0 0 226.7716,-0.0242 56.692904,56.692904 -90 0 1 -113.3858,0.041 v -0.0303 -0.0214 A 56.6929,56.6929 -90 0 0 608.315,274.9365 Z"
           style="fill:#000000;fill-rule:evenodd;stroke-width:0.05695736;stroke-linecap:round;stroke-linejoin:round"
           id="path1103-3"
           inkscape:connector-curvature="0" />
        <path
           d="m 608.315,274.9848 a 113.3858,113.3858 -90 0 0 226.7716,-0.0242 56.692904,56.692904 -90 0 1 -113.3858,0.041 v -0.0303 -0.0214 A 56.6929,56.6929 -90 0 0 608.315,274.9365 Z"
           style="fill:#a1d6e2;fill-opacity:1;stroke:#000000;stroke-width:0.05695736;stroke-linecap:round;stroke-linejoin:round;stroke-dasharray:none"
           id="path1105-12"
           inkscape:connector-curvature="0" />
      </g>
      <g
         style="display:inline;fill:#1995ad;fill-opacity:1;stroke-width:0.07594314"
         transform="matrix(-0.414942,0,0,0.41633338,442.37692,-18.102411)"
         id="Layer1025-3">
        <path
           d="m 835.1107,501.7323 a 113.38585,113.38585 -180 0 0 -0.0241,-226.7717 56.692904,56.692904 -180 0 1 0.041,113.3858 l -0.0303,10e-5 h -0.0214 a 56.6929,56.6929 -180 0 0 -0.0134,113.3858 z"
           style="fill:#1995ad;fill-opacity:1;fill-rule:evenodd;stroke-width:0.05695736;stroke-linecap:round;stroke-linejoin:round"
           id="path1108-845"
           inkscape:connector-curvature="0" />
        <path
           d="m 835.1107,501.7323 a 113.38585,113.38585 -180 0 0 -0.0241,-226.7717 56.692904,56.692904 -180 0 1 0.041,113.3858 l -0.0303,10e-5 h -0.0214 a 56.6929,56.6929 -180 0 0 -0.0134,113.3858 z"
           style="fill:#1995ad;fill-opacity:1;stroke:#000000;stroke-width:0.05695736;stroke-linecap:round;stroke-linejoin:round;stroke-dasharray:none"
           id="path1110-6"
           inkscape:connector-curvature="0" />
      </g>
    </g>
  </g>
</svg>
